<svg xmlns="http://www.w3.org/2000/svg" width="850" height="375" viewBox="0 0 850 375" role="img" aria-labelledby="titleId">
  <title id="titleId">fanxy1's Contribution Graph</title>
  <style>
    .header { font: 600 18px 'Segoe UI', Ubuntu, Sans-Serif; fill: #8b949e; }
    .axis { font: 600 12px 'Segoe UI', Ubuntu, Sans-Serif; fill: #8b949e; }
  </style>
  <rect width="100%" height="100%" fill="transparent"/>
  <text class="header" x="425" y="36" text-anchor="middle">fanxy1's Contribution Graph</text>
  <line x1="70" y1="325.00" x2="810" y2="325.00" stroke="#8b949e" stroke-opacity="0.18"/><line x1="70" y1="261.25" x2="810" y2="261.25" stroke="#8b949e" stroke-opacity="0.18"/><line x1="70" y1="197.50" x2="810" y2="197.50" stroke="#8b949e" stroke-opacity="0.18"/><line x1="70" y1="133.75" x2="810" y2="133.75" stroke="#8b949e" stroke-opacity="0.18"/><line x1="70" y1="70.00" x2="810" y2="70.00" stroke="#8b949e" stroke-opacity="0.18"/>
  <polyline fill="none" stroke="#26a641" stroke-width="2.4" stroke-linejoin="round" stroke-linecap="round" points="70.00,325.00 94.67,325.00 119.33,325.00 144.00,325.00 168.67,325.00 193.33,325.00 218.00,325.00 242.67,325.00 267.33,325.00 292.00,325.00 316.67,325.00 341.33,101.88 366.00,325.00 390.67,325.00 415.33,325.00 440.00,325.00 464.67,325.00 489.33,325.00 514.00,325.00 538.67,325.00 563.33,325.00 588.00,325.00 612.67,325.00 637.33,325.00 662.00,165.62 686.67,70.00 711.33,293.12 736.00,229.38 760.67,261.25 785.33,325.00 810.00,101.88"/>
  <circle cx="70.00" cy="325.00" r="3.2" fill="#8b949e"><title>0 contributions</title></circle><circle cx="94.67" cy="325.00" r="3.2" fill="#8b949e"><title>0 contributions</title></circle><circle cx="119.33" cy="325.00" r="3.2" fill="#8b949e"><title>0 contributions</title></circle><circle cx="144.00" cy="325.00" r="3.2" fill="#8b949e"><title>0 contributions</title></circle><circle cx="168.67" cy="325.00" r="3.2" fill="#8b949e"><title>0 contributions</title></circle><circle cx="193.33" cy="325.00" r="3.2" fill="#8b949e"><title>0 contributions</title></circle><circle cx="218.00" cy="325.00" r="3.2" fill="#8b949e"><title>0 contributions</title></circle><circle cx="242.67" cy="325.00" r="3.2" fill="#8b949e"><title>0 contributions</title></circle><circle cx="267.33" cy="325.00" r="3.2" fill="#8b949e"><title>0 contributions</title></circle><circle cx="292.00" cy="325.00" r="3.2" fill="#8b949e"><title>0 contributions</title></circle><circle cx="316.67" cy="325.00" r="3.2" fill="#8b949e"><title>0 contributions</title></circle><circle cx="341.33" cy="101.88" r="3.2" fill="#8b949e"><title>7 contributions</title></circle><circle cx="366.00" cy="325.00" r="3.2" fill="#8b949e"><title>0 contributions</title></circle><circle cx="390.67" cy="325.00" r="3.2" fill="#8b949e"><title>0 contributions</title></circle><circle cx="415.33" cy="325.00" r="3.2" fill="#8b949e"><title>0 contributions</title></circle><circle cx="440.00" cy="325.00" r="3.2" fill="#8b949e"><title>0 contributions</title></circle><circle cx="464.67" cy="325.00" r="3.2" fill="#8b949e"><title>0 contributions</title></circle><circle cx="489.33" cy="325.00" r="3.2" fill="#8b949e"><title>0 contributions</title></circle><circle cx="514.00" cy="325.00" r="3.2" fill="#8b949e"><title>0 contributions</title></circle><circle cx="538.67" cy="325.00" r="3.2" fill="#8b949e"><title>0 contributions</title></circle><circle cx="563.33" cy="325.00" r="3.2" fill="#8b949e"><title>0 contributions</title></circle><circle cx="588.00" cy="325.00" r="3.2" fill="#8b949e"><title>0 contributions</title></circle><circle cx="612.67" cy="325.00" r="3.2" fill="#8b949e"><title>0 contributions</title></circle><circle cx="637.33" cy="325.00" r="3.2" fill="#8b949e"><title>0 contributions</title></circle><circle cx="662.00" cy="165.62" r="3.2" fill="#8b949e"><title>5 contributions</title></circle><circle cx="686.67" cy="70.00" r="3.2" fill="#8b949e"><title>8 contributions</title></circle><circle cx="711.33" cy="293.12" r="3.2" fill="#8b949e"><title>1 contribution</title></circle><circle cx="736.00" cy="229.38" r="3.2" fill="#8b949e"><title>3 contributions</title></circle><circle cx="760.67" cy="261.25" r="3.2" fill="#8b949e"><title>2 contributions</title></circle><circle cx="785.33" cy="325.00" r="3.2" fill="#8b949e"><title>0 contributions</title></circle><circle cx="810.00" cy="101.88" r="3.2" fill="#8b949e"><title>7 contributions</title></circle>
  <text class="axis" x="58" y="329.00" text-anchor="end">0</text><text class="axis" x="58" y="265.25" text-anchor="end">2</text><text class="axis" x="58" y="201.50" text-anchor="end">4</text><text class="axis" x="58" y="137.75" text-anchor="end">6</text><text class="axis" x="58" y="74.00" text-anchor="end">8</text>
  <text class="axis" x="70.00" y="357" text-anchor="middle">Aug 08</text><text class="axis" x="440.00" y="357" text-anchor="middle">Aug 23</text><text class="axis" x="810.00" y="357" text-anchor="middle">Sep 07</text>
</svg>
